{"title":"Cocoon (1985) Steve Guttenberg [Quality DVDrip, MULTISUBS]","uid":4427900,"size":731631616,"categoryP":"video","categoryS":"movies","magnet":"?xt=urn:btih:da8d8a86d2f3f655f33912ee83b3629ea8eeee1c&amp;dn=Cocoon+%281985%29+Steve+Guttenberg+%5BQuality+DVDrip%2C+MULTISUBS%5D&amp;tr=udp%3A%2F%2Ftracker.openbittorrent.com%3A80&amp;tr=udp%3A%2F%2Fopen.demonii.com%3A1337&amp;tr=udp%3A%2F%2Ftracker.coppersurfer.tk%3A6969&amp;tr=udp%3A%2F%2Fexodus.desync.com%3A6969","seeders":9,"leechers":0,"uploader":"Kuthumi","files":-1,"time":1223132829,"description":" &lt;a href=&quot;\nhttp://www.imdb.com/title/tt0088933/&quot; rel=&quot;nofollow&quot; target=&quot;_NEW&quot;&gt;\nhttp://www.imdb.com/title/tt0088933/&lt;/a&gt;\n\nOptional Swedish subs in separate idx/sub files\nOptional subs in srt format:\nDanish, Dutch, English, Finnish, French, German, Hungarian, Norwegian, Polish\n\nDirected by Ron Howard (Apollo 13, The Da Vinci Code)\n\nEternal, classic Science Fiction with a heart and lots of laughs, where the senior citizens in a small town are revitalized by extraterrestial energies. Hard to forget the &amp;#039;cosmic orgasm&amp;#039; given to Steve Guttenberg in a swimmingpool by alien Tahnee Welch (daughter of Raquel).\n\nOne of the last performances for the whole class of Hollywood oldtimers like Don Ameche (Oscar), Jessica Tandy, Hume Cronyn and Wilford Brimley.\n\nDVDrip, Widescreen 704x368, 2-pass, great stereo AC3.\nBurn tested, runs well in both my standalone DivX players.\n\nFormat/Info                      : Audio Video Interleave\nFile size                        : 697 MiB\nDuration                         : 1h 52mn\nOveral bit rate                  : 867 Kbps\n\nVideo\nFormat                           : MPEG-4 Visual\nFormat profile                   : Streaming Video@L1\nFormat settings, BVOP            : Yes\nFormat settings, QPel            : No\nFormat settings, GMC             : No warppoints\nFormat settings, Matrix          : Default\nMuxing mode                      : Packet Bitstream\nCodec ID                         : XVID\nCodec ID/Hint                    : XviD\nDuration                         : 1h 52mn\nBit rate                         : 729 Kbps\nWidth                            : 704 pixels\nHeight                           : 368 pixels\nDisplay aspect ratio             : 1.913\nFrame rate                       : 25.000 fps\nResolution                       : 8 bits\nColorimetry                      : 4:2:0\nScan type                        : Progressive\nBits/(Pixel*Frame)               : 0.113\nStream size                      : 586 MiB\nWriting library                  : XviD 1.2.0.dev47 (UTC 2006-11-01)\n\nAudio\nFormat                           : MPEG Audio\nFormat version                   : Version 1\nFormat profile                   : Layer 3\nCodec ID                         : 55\nCodec ID/Hint                    : MP3\nDuration                         : 1h 52mn\nBit rate mode                    : Constant\nBit rate                         : 128 Kbps\nMinimum bit rate                 : 128 Kbps\nChannel(s)                       : 2 channels\nSampling rate                    : 48.0 KHz\nResolution                       : 16 bits\nStream size                      : 103 MiB\nWriting library                  : LAME3.97 \nEncoding settings                : CBR\n\nSource: PAL retail (note that PAL/NTSC will give no problems for avi files)\n","torrent":{"xt":"urn:btih:da8d8a86d2f3f655f33912ee83b3629ea8eeee1c","amp;dn":"Cocoon+%281985%29+Steve+Guttenberg+%5BQuality+DVDrip%2C+MULTISUBS%5D","amp;tr":["udp%3A%2F%2Ftracker.openbittorrent.com%3A80","udp%3A%2F%2Fopen.demonii.com%3A1337","udp%3A%2F%2Ftracker.coppersurfer.tk%3A6969","udp%3A%2F%2Fexodus.desync.com%3A6969"],"infoHash":"da8d8a86d2f3f655f33912ee83b3629ea8eeee1c","infoHashBuffer":{"type":"Buffer","data":[218,141,138,134,210,243,246,85,243,57,18,238,131,179,98,158,168,238,238,28]},"announce":[],"urlList":[]}}